# xmcd CD database file
#
# Track frame offsets:
#	150
#	12015
#	25352
#	36062
#	49772
#	64145
#	76752
#	90230
#	104800
#	118452
#	131745
#	145942
#	159070
#	173162
#	186665
#	201297
#	214205
#	225322
#	237895
#	250655
#	263692
#	275652
#	289670
#	301322
#	313350
#
# Disc length: 4341 seconds
#
# Revision: 0
# Processed by: cddbd v1.4PL0 Copyright (c) Steve Scherf et al.
# Submitted via: CDex 1.40Beta8
#
DISCID=6610f319
DTITLE=Ernest Tubb - Early Hits of "The Texas Troubadour"
DYEAR=1900
DGENRE=Country
TTITLE0=Walking the Floor Over You
TTITLE1=Mean Mama Blues
TTITLE2=Try Me One More Time
TTITLE3=Tomorrow Never Comes
TTITLE4=Soldier's Last Letter
TTITLE5=Careless Darlin'
TTITLE6=Yesterday's Tear
TTITLE7=It's Been So Long, Darling
TTITLE8=Filipino Baby
TTITLE9=Drivin' Nails In My Coffin
TTITLE10=Rainbow at Midnight
TTITLE11=So Round, So Firm, So Fully Packed
TTITLE12=Don't Look Now (But Your Broken Heart Is Showing)
TTITLE13=Let's Say Goodbye Like We Said Hello
TTITLE14=Forever Is Ending Today
TTITLE15=Have You Ever Been Lonely (Have You Ever Been Blue)
TTITLE16=Till the End of the World
TTITLE17=Don't Rob Another Man's Castle
TTITLE18=I'm Bitin' My Fingernails and Thinking of You
TTITLE19=Slipping Around
TTITLE20=Tennessee Border No. 2
TTITLE21=Letters Have No Arms
TTITLE22=Throw Your Love My Way
TTITLE23=I Love You Because
TTITLE24=Blue Christmas
EXTD=ID3G: 2
EXTT0=
EXTT1=
EXTT2=
EXTT3=
EXTT4=
EXTT5=
EXTT6=
EXTT7=
EXTT8=
EXTT9=
EXTT10=
EXTT11=
EXTT12=
EXTT13=
EXTT14=
EXTT15=
EXTT16=
EXTT17=
EXTT18=
EXTT19=
EXTT20=
EXTT21=
EXTT22=
EXTT23=
EXTT24=
PLAYORDER=
